<svg xmlns="http://www.w3.org/2000/svg" width="266.21" height="350" viewBox="0 0 266.21 350">
  <g id="useric" transform="translate(-41.895)">
    <g id="Group_1" data-name="Group 1">
      <path id="Path_1" data-name="Path 1" d="M175,171.173c38.914,0,70.463-38.318,70.463-85.586S235.1,0,175,0s-70.465,38.318-70.465,85.587S136.084,171.173,175,171.173Z" fill="#00941c"/>
      <path id="Path_2" data-name="Path 2" d="M41.909,301.853c-.012-2.882-.024-.812,0,0Z" fill="#00941c"/>
      <path id="Path_3" data-name="Path 3" d="M308.085,304.1c.038-.789.013-5.474,0,0Z" fill="#00941c"/>
      <path id="Path_4" data-name="Path 4" d="M307.935,298.4c-1.3-82.342-12.059-105.8-94.352-120.657,0,0-11.584,14.761-38.584,14.761s-38.586-14.761-38.586-14.761c-81.395,14.69-92.8,37.805-94.3,117.982-.123,6.547-.18,6.891-.2,6.131.005,1.424.011,4.058.011,8.651,0,0,19.592,39.5,133.08,39.5s133.08-39.5,133.08-39.5c0-2.951,0-5,.005-6.4C308.062,304.575,308.018,303.664,307.935,298.4Z" fill="#00941c"/>
    </g>
  </g>
</svg>
